<?xml version="1.0" encoding="UTF-8"?><svg id="a" xmlns="http://www.w3.org/2000/svg" viewBox="0 0 483.45 129.47"><defs><style>.b{fill:#231f20;font-family:CenturyGothic, Century Gothic;font-size:29px;}.c{fill:#ed1a37;stroke:#fff;stroke-miterlimit:10;}</style></defs><g><path class="c" d="M11.48,3.51S47.48-6.96,67.77,12.02V88.02s-17.96-20.36-56.29-9.02"/><path class="c" d="M73.52,12.96V88.02s28.8-19.78,59.05-8.73V4.82S123.85-.37,104.94,.63V37.69l-.58,13.67-10.47-12.22-9.02,7.42-.73-39.85-10.62,6.25Z"/><path class="c" d="M5.3,10.2V87.14s40.44-13.82,66.91,9.16c0,0,23.42-22.25,66.18-9.31V10.2h5.82V92.96s-45.67-13.09-70.69,11.05c0,0-18.62-23.56-73.02-10.76V10.2H5.3Z"/></g><text class="b" transform="translate(165.78 67.91)"><tspan x="0" y="0">Educate Everyone</tspan></text></svg>