<?xml version="1.0" encoding="utf-8"?>
<!-- Generator: Adobe Illustrator 26.2.1, SVG Export Plug-In . SVG Version: 6.00 Build 0)  -->
<svg version="1.1" id="Layer_1" xmlns="http://www.w3.org/2000/svg" xmlns:xlink="http://www.w3.org/1999/xlink" x="0px" y="0px"
	 viewBox="0 0 120.9 122.9" style="enable-background:new 0 0 120.9 122.9;" xml:space="preserve">
<style type="text/css">
	.st0{fill-rule:evenodd;clip-rule:evenodd;fill:#FA4454;}
</style>
<path class="st0" d="M91.5,110.3V74H75.2c-6.9,1.2-13.8,5-20.8,9.4H41.7c-5.8,0.3-8.8,6.2-3.2,10c4.5,3.3,10.3,3.1,16.3,2.5
	c4.2-0.2,4.3,5.4,0,5.4c-1.5,0.1-3.1-0.2-4.6-0.2c-7.5,0-13.7-1.4-17.5-7.4l-1.9-4.4l-18.9-9.4c-9.4-3.1-16.2,6.8-9.2,13.6
	c13.2,9.6,27.2,17.9,42,24.7c10.4,6.3,20.8,6.1,31.2,0L91.5,110.3L91.5,110.3z M22.9,7.8h-2.5c-1.7,0-3,1.3-3,2.9c0,0,0,0,0,0.1
	v56.8c0,0.8,0.3,1.6,0.9,2.2c0.6,0.6,1.3,0.9,2.2,0.9h41.8c1.7,0,3-1.4,3-3.1v-2.8h-3.4v2.4H20.8V11.2h2.1
	C22.9,11.2,22.9,7.8,22.9,7.8z M36.8,52h29.9v-2.8H36.8V52z M36.8,43.2h29.9v-2.8H36.8V43.2L36.8,43.2z M36.8,17h10v-2.8h-10V17
	L36.8,17z M36.8,25.7h14.1v-2.8H36.8V25.7L36.8,25.7z M36.8,34.5H67v-2.8H36.8V34.5L36.8,34.5z M59.5,6.5l11.1,11.7H59.5V6.5
	L59.5,6.5z M76.8,19.7c0-0.8-0.6-1.6-1.3-1.8L59,0.7C58.7,0.3,58.2,0,57.6,0H30.3C28.5,0,27,1.5,27,3.3c0,0,0,0,0,0V58
	c0,1.8,1.5,3.3,3.3,3.3c0,0,0,0,0,0h43.1c1.8,0,3.3-1.5,3.3-3.3c0,0,0,0,0,0V19.7z M73,21.9v35.7H30.7V3.7h25V20
	c0,1,0.8,1.9,1.9,1.9L73,21.9z M120.8,70.5H96.4v43.5h24.4L120.8,70.5L120.8,70.5z"/>
</svg>
