<?xml version="1.0" encoding="UTF-8"?><svg id="a" xmlns="http://www.w3.org/2000/svg" viewBox="0 0 111.39 122.92"><defs><style>.b{fill:#fa4454;}</style></defs><path class="b" d="M66.8,7.08H29.88c-2.39,0-4.57,.41-6.54,1.22-1.98,.82-3.81,2.06-5.48,3.74h.01c-.68,.69-1.28,1.39-1.82,2.11-3.02,.12-5.92,.57-8.71,1.35,.08-.22,.17-.44,.26-.65,1.19-2.88,2.94-5.48,5.27-7.8h.02c2.33-2.33,4.93-4.08,7.79-5.26,2.84-1.2,5.91-1.79,9.2-1.79h53.65c3.28,0,6.36,.59,9.23,1.77,2.88,1.19,5.48,2.94,7.8,5.26h-.01c2.34,2.35,4.09,4.95,5.27,7.8,1.18,2.87,1.77,5.94,1.77,9.23v.09h-7.08v-.09c0-2.39-.41-4.57-1.22-6.54-.82-1.98-2.06-3.81-3.73-5.48h-.02c-1.69-1.69-3.51-2.93-5.48-3.74-1.97-.81-4.16-1.22-6.54-1.22h-16.72Zm20.76,32.86h23.07v5.59l-12.57,12.78h13.33v6.52h-24.79v-6.19l11.97-12.17h-11.01v-6.53h0Zm-14.58-9.44h9.54v6.47h-9.54v-6.47h0Zm0,9.44h9.54v24.89h-9.54v-24.89h0Zm-6.14,24.89h-8.91v-4.01c-1.33,1.65-2.66,2.83-4,3.53-1.35,.7-3,1.05-4.97,1.05-2.62,0-4.67-.78-6.16-2.36-1.49-1.57-2.23-3.99-2.23-7.26v-15.84h9.59v13.71c0,1.56,.29,2.67,.86,3.33,.58,.66,1.38,.98,2.42,.98,1.13,0,2.05-.44,2.78-1.31,.72-.88,1.08-2.45,1.08-4.72v-12h9.54v24.9h0Zm-35-5.04c1.32,.92,2.18,1.5,2.59,1.73,.6,.34,1.42,.74,2.45,1.2l-2.93,5.94c-1.48-.72-2.95-1.57-4.4-2.56-1.45-.99-2.47-1.74-3.04-2.23-2.34,1.01-5.27,1.53-8.81,1.53-5.22,0-9.33-1.36-12.35-4.08-3.57-3.2-5.35-7.72-5.35-13.54s1.56-10.04,4.68-13.17c3.12-3.13,7.46-4.69,13.06-4.69s10.09,1.53,13.19,4.59c3.1,3.05,4.65,7.43,4.65,13.12,0,5.07-1.25,9.12-3.74,12.16h0Zm-8.13-5.44c.85-1.51,1.27-3.77,1.27-6.79,0-3.46-.65-5.93-1.93-7.42-1.29-1.48-3.07-2.22-5.34-2.22-2.12,0-3.83,.76-5.14,2.27-1.32,1.51-1.97,3.88-1.97,7.09,0,3.75,.64,6.38,1.92,7.89,1.29,1.51,3.04,2.27,5.27,2.27,.72,0,1.4-.07,2.04-.21-.9-.86-2.3-1.67-4.23-2.44l1.66-3.81c.94,.17,1.68,.38,2.2,.63,.53,.25,1.55,.9,3.08,1.97,.36,.25,.75,.51,1.17,.77h0Zm-9.5,26.72c.81,1.88,2.03,3.62,3.64,5.24l.16,.17c1.63,1.58,3.41,2.78,5.34,3.57,1.97,.81,4.15,1.22,6.53,1.22h15.86c1.96,0,3.54,1.59,3.54,3.54,0,.42-.07,.83-.21,1.21-.58,2.24-1.25,4.44-1.99,6.58-.78,2.25-1.63,4.42-2.56,6.49-.4,.93-.86,1.84-1.37,2.74,3.07-1.39,5.95-2.97,8.65-4.75h0c2.98-1.96,5.73-4.12,8.27-6.5,2.57-2.41,4.91-5.04,7.04-7.87,.69-.92,1.75-1.41,2.82-1.41h13.61c2.38-.01,4.56-.42,6.53-1.23,1.99-.82,3.83-2.07,5.51-3.74,1.67-1.67,2.91-3.5,3.73-5.48l.08-.2h7.42c-.26,.99-.58,1.95-.97,2.89-1.18,2.86-2.94,5.47-5.28,7.81-2.34,2.32-4.94,4.08-7.8,5.26s-5.93,1.78-9.21,1.78h-11.9c-2.09,2.65-4.34,5.1-6.75,7.36-2.86,2.69-5.94,5.12-9.23,7.27h0c-3.31,2.17-6.84,4.08-10.57,5.71-3.73,1.63-7.7,2.99-11.89,4.08-1.24,.32-2.62-.05-3.53-1.08-1.29-1.46-1.15-3.69,.3-4.98,1.87-1.66,3.46-3.33,4.78-5.01l.15-.21c1.33-1.72,2.38-3.47,3.15-5.23v-.03c.88-1.94,1.67-3.92,2.36-5.93,.22-.64,.44-1.29,.65-1.95h-11.18c-3.28,0-6.35-.6-9.21-1.78-2.78-1.15-5.31-2.84-7.6-5.06-.08-.06-.15-.13-.22-.2-2.32-2.32-4.08-4.92-5.26-7.8-.52-1.26-.92-2.56-1.22-3.91,2.48,.72,5.09,1.21,7.84,1.43h0Z"/></svg>