<?xml version="1.0" encoding="UTF-8"?><svg id="a" xmlns="http://www.w3.org/2000/svg" viewBox="0 0 122.9 117.37"><defs><style>.b{fill:#fa4454;fill-rule:evenodd;}</style></defs><path class="b" d="M100.43,72.47c12.4-.01,22.46,10.03,22.47,22.43,.01,12.4-10.03,22.46-22.43,22.47-12.4,.01-22.46-10.03-22.47-22.43,0-.01,0-.02,0-.03,0-12.39,10.05-22.44,22.44-22.44h-.01Zm-17.9-1.75l.25,.15-.48,.37,.23-.52Zm-8.62,37.83H0c0-33,19.32-25.24,39-37.83,4.8,12.85,24.43,15.68,36.09,8.47-5.52,8.9-5.97,20.04-1.18,29.36Zm-29-39c-.25-.44,.77-3.22,1-3.66-3-2.67-5.37-5.36-5.87-10.9h-.33c-.74,0-1.47-.19-2.12-.56-1.07-.67-1.89-1.67-2.34-2.85-1.08-2.48-1.94-9,.78-10.87l-.51-.34-.06-.72c-.1-1.31-.13-2.9-.15-4.57-.1-6.14-.23-11.54-5.16-13l-2.15-.65,1.39-1.72c3.65-4.63,7.81-8.83,12.39-12.54C46.53,3.43,51.36,.94,56.09,.22c4.98-.81,10.07,.61,13.91,3.89,1.37,1.12,2.62,2.37,3.73,3.74,4.47,.49,8.52,2.86,11.14,6.52,1.64,2.2,2.87,4.68,3.63,7.32,.79,2.69,1.13,5.49,1,8.29-.26,5-2.09,7.86-5.78,11.42,.63,.02,1.24,.18,1.8,.47,2.06,1.1,2.12,3.49,1.59,5.49-.57,1.64-1.25,3.64-1.89,5.25-.78,2.21-1.92,2.62-4.11,2.38-.12,5.45-2.64,8.13-6,11.33l.74,2.68c-2.14,10.38-24.85,11.5-31,.57l.06-.02Zm51.45,14.73c0-1.2-.12-2.06,1.37-2l4.83,.06c1.56,0,2,.48,2,1.94v6.59h6.55c1.21,0,2.07-.11,2,1.38l-.06,4.75c0,1.56-.49,2-2,1.95h-6.59v6.59c0,1.46-.39,2-2,1.94l-4.83,.06c-1.49,0-1.38-.83-1.37-2v-6.54h-6.49c-1.47,0-2-.39-2-1.95l-.06-4.83c0-1.49,.84-1.38,2-1.38h6.56v-6.56h.09Z"/></svg>